# Blender 3.3.1
# www.blender.org
mtllib ship.mtl
o Ship
v 1.000000 -1.038682 0.186471
v 0.400000 0.700000 0.186471
v -1.000000 -1.038682 0.186471
v -0.400000 0.700000 0.186471
v 1.000000 -1.038682 -0.162555
v 0.400000 0.700000 -0.162555
v -1.000000 -1.038682 -0.162555
v -0.400000 0.700000 -0.162555
v 0.000000 -0.800000 0.309279
v 0.000000 1.360157 0.186471
v 0.000000 -0.800000 -0.482285
v 0.000000 1.360157 -0.162555
v 0.500000 -1.038682 0.186471
v 0.147108 0.900000 -0.162555
v 0.147108 0.900000 0.186471
v 0.500000 -1.038682 -0.162555
v -0.147108 0.900000 0.186471
v -0.500000 -1.038682 -0.162555
v -0.500000 -1.038682 0.186471
v -0.147108 0.900000 -0.162555
v 0.700000 -0.300000 0.186471
v -0.700000 -0.300000 0.186471
v -0.700000 -0.300000 -0.162555
v 0.700000 -0.300000 -0.162555
v -0.000000 -0.300000 -0.574000
v 0.000000 -0.300000 0.309279
v 0.350000 -0.300000 0.186471
v 0.350000 -0.300000 -0.162555
v -0.350000 -0.300000 -0.162555
v -0.350000 -0.300000 0.186471
vn -0.0000 -0.0000 1.0000
vn -0.9578 0.2873 -0.0000
vn -0.0000 -0.0000 -1.0000
vn 0.9578 0.2873 -0.0000
vn -0.0000 -1.0000 -0.0000
vn 0.6203 0.7844 -0.0000
vn -0.9525 0.3045 -0.0000
vn 0.4308 -0.9024 -0.0000
vn -0.7089 0.1494 -0.6893
vn 0.2929 0.0617 0.9542
vn 0.9525 0.3045 -0.0000
vn -0.4308 -0.9024 -0.0000
vn 0.7089 0.1494 -0.6893
vn -0.6203 0.7844 -0.0000
vn -0.2929 0.0617 0.9542
vn -0.2864 0.0347 0.9575
vn 0.6557 0.0235 -0.7546
vn 0.2864 0.0347 0.9575
vn -0.6557 0.0235 -0.7546
vn 0.9265 0.3763 -0.0000
vn -0.9265 0.3763 -0.0000
vt 0.125000 0.750000
vt 0.375000 0.000000
vt 0.375000 1.000000
vt 0.625000 1.000000
vt 0.875000 0.750000
vt 0.625000 0.000000
vt 0.125000 0.500000
vt 0.375000 0.250000
vt 0.625000 0.250000
vt 0.875000 0.500000
vt 0.375000 0.750000
vt 0.625000 0.750000
vt 0.375000 0.500000
vt 0.625000 0.500000
vt 0.125000 0.625000
vt 0.375000 0.125000
vt 0.875000 0.625000
vt 0.625000 0.125000
vt 0.375000 0.625000
vt 0.625000 0.625000
vt 0.125000 0.687500
vt 0.375000 0.062500
vt 0.625000 0.687500
vt 0.625000 0.062500
vt 0.875000 0.687500
vt 0.375000 0.687500
vt 0.875000 0.562500
vt 0.625000 0.187500
vt 0.375000 0.562500
vt 0.125000 0.562500
vt 0.375000 0.187500
vt 0.625000 0.562500
vt 0.500000 0.000000
vt 0.500000 1.000000
vt 0.500000 0.250000
vt 0.500000 0.500000
vt 0.500000 0.750000
vt 0.500000 0.625000
vt 0.500000 0.125000
vt 0.500000 0.062500
vt 0.500000 0.687500
vt 0.500000 0.562500
vt 0.500000 0.187500
s 0
f 30/43/1 17/28/1 4/9/1 22/35/1
f 22/35/2 4/9/2 8/14/2 23/36/2
f 28/41/3 14/23/3 6/12/3 24/37/3
f 24/37/4 6/12/4 2/4/4 21/34/4
f 13/21/5 16/26/5 5/11/5 1/1/5
f 14/23/6 15/25/6 2/5/6 6/12/6
f 20/32/7 17/27/7 10/17/7 12/20/7
f 19/30/8 18/29/8 11/19/8 9/15/8
f 29/42/9 20/32/9 12/20/9 25/38/9
f 27/40/10 15/24/10 10/18/10 26/39/10
f 21/33/1 2/6/1 15/24/1 27/40/1
f 12/20/11 10/17/11 15/25/11 14/23/11
f 9/15/12 11/19/12 16/26/12 13/21/12
f 25/38/13 12/20/13 14/23/13 28/41/13
f 23/36/3 8/14/3 20/32/3 29/42/3
f 3/7/5 7/13/5 18/29/5 19/30/5
f 8/14/14 4/10/14 17/27/14 20/32/14
f 26/39/15 10/18/15 17/28/15 30/43/15
f 9/16/16 26/39/16 30/43/16 19/31/16
f 7/13/3 23/36/3 29/42/3 18/29/3
f 11/19/17 25/38/17 28/41/17 16/26/17
f 1/2/1 21/33/1 27/40/1 13/22/1
f 13/22/18 27/40/18 26/39/18 9/16/18
f 18/29/19 29/42/19 25/38/19 11/19/19
f 5/11/20 24/37/20 21/34/20 1/3/20
f 16/26/3 28/41/3 24/37/3 5/11/3
f 3/8/21 22/35/21 23/36/21 7/13/21
f 19/31/1 30/43/1 22/35/1 3/8/1
