# Blender 3.3.1
# www.blender.org
o Ship
v -0.700000 -0.738682 1.000000
v -0.700000 1.000000 0.400000
v -0.700000 -0.738682 -1.000000
v -0.700000 1.000000 -0.400000
v -0.350974 -0.738682 1.000000
v -0.350974 1.000000 0.400000
v -0.350974 -0.738682 -1.000000
v -0.350974 1.000000 -0.400000
v -0.822808 -0.500000 0.000000
v -0.700000 1.660157 0.000000
v -0.031243 -0.500000 0.000000
v -0.350974 1.660157 0.000000
v -0.700000 -0.738682 0.500000
v -0.350974 1.200000 0.147108
v -0.700000 1.200000 0.147108
v -0.350974 -0.738682 0.500000
v -0.700000 1.200000 -0.147108
v -0.350974 -0.738682 -0.500000
v -0.700000 -0.738682 -0.500000
v -0.350974 1.200000 -0.147108
v -0.700000 0.000000 0.700000
v -0.700000 0.000000 -0.700000
v -0.350974 0.000000 -0.700000
v -0.350974 0.000000 0.700000
v 0.060471 0.000000 0.000000
v -0.822808 0.000000 0.000000
v -0.700000 0.000000 0.350000
v -0.350974 0.000000 0.350000
v -0.350974 0.000000 -0.350000
v -0.700000 0.000000 -0.350000
vn -1.0000 -0.0000 -0.0000
vn -0.0000 0.2873 -0.9578
vn 1.0000 -0.0000 -0.0000
vn -0.0000 0.2873 0.9578
vn -0.0000 -1.0000 -0.0000
vn -0.0000 0.7844 0.6203
vn -0.0000 0.3045 -0.9525
vn -0.0000 -0.9024 0.4308
vn 0.6426 0.1277 -0.7555
vn -0.9421 0.0559 0.3306
vn -0.0000 0.3045 0.9525
vn -0.0000 -0.9024 -0.4308
vn 0.6426 0.1277 0.7555
vn -0.0000 0.7844 -0.6203
vn -0.9421 0.0559 -0.3306
vn -0.9636 0.0532 -0.2621
vn 0.8106 0.1165 0.5740
vn -0.9636 0.0532 0.2621
vn 0.8106 0.1165 -0.5740
vn -0.0000 0.3763 0.9265
vn -0.0000 0.3763 -0.9265
vn 0.7756 0.1922 -0.6013
vn -0.9717 0.0719 0.2249
vn 0.7756 0.1922 0.6013
vn -0.9717 0.0719 -0.2249
vn -0.9436 -0.0000 -0.3311
vn 0.6434 -0.1180 0.7564
vn -0.9436 -0.0000 0.3311
vn 0.6434 -0.1180 -0.7564
vt 0.375000 0.000000
vt 0.125000 0.750000
vt 0.375000 1.000000
vt 0.625000 1.000000
vt 0.875000 0.750000
vt 0.625000 0.000000
vt 0.125000 0.500000
vt 0.375000 0.250000
vt 0.625000 0.250000
vt 0.875000 0.500000
vt 0.375000 0.750000
vt 0.625000 0.750000
vt 0.375000 0.500000
vt 0.625000 0.500000
vt 0.125000 0.625000
vt 0.375000 0.125000
vt 0.875000 0.625000
vt 0.625000 0.125000
vt 0.375000 0.625000
vt 0.625000 0.625000
vt 0.125000 0.687500
vt 0.375000 0.062500
vt 0.625000 0.687500
vt 0.625000 0.062500
vt 0.875000 0.687500
vt 0.375000 0.687500
vt 0.875000 0.562500
vt 0.625000 0.187500
vt 0.375000 0.562500
vt 0.125000 0.562500
vt 0.375000 0.187500
vt 0.625000 0.562500
vt 0.500000 0.000000
vt 0.500000 1.000000
vt 0.500000 0.250000
vt 0.500000 0.500000
vt 0.500000 0.750000
vt 0.500000 0.625000
vt 0.500000 0.125000
vt 0.500000 0.062500
vt 0.500000 0.687500
vt 0.500000 0.562500
vt 0.500000 0.187500
s 0
f 30/43/1 4/9/1 22/35/1
f 4/9/2 23/36/2 22/35/2
f 28/41/3 6/12/3 24/37/3
f 6/12/4 21/34/4 24/37/4
f 16/26/5 1/2/5 13/21/5
f 15/25/6 6/12/6 14/23/6
f 17/27/7 12/20/7 20/32/7
f 18/29/8 9/15/8 19/30/8
f 20/32/9 25/38/9 29/42/9
f 15/24/10 26/39/10 27/40/10
f 2/6/1 27/40/1 21/33/1
f 10/17/11 14/23/11 12/20/11
f 9/15/12 16/26/12 13/21/12
f 25/38/13 14/23/13 28/41/13
f 8/14/3 29/42/3 23/36/3
f 7/13/5 19/30/5 3/7/5
f 4/10/14 20/32/14 8/14/14
f 26/39/15 17/28/15 30/43/15
f 9/16/16 30/43/16 19/31/16
f 23/36/3 18/29/3 7/13/3
f 11/19/17 28/41/17 16/26/17
f 21/33/1 13/22/1 1/1/1
f 27/40/18 9/16/18 13/22/18
f 29/42/19 11/19/19 18/29/19
f 24/37/20 1/3/20 5/11/20
f 16/26/3 24/37/3 5/11/3
f 22/35/21 7/13/21 3/8/21
f 19/31/1 22/35/1 3/8/1
f 30/43/1 17/28/1 4/9/1
f 4/9/2 8/14/2 23/36/2
f 28/41/3 14/23/3 6/12/3
f 6/12/4 2/4/4 21/34/4
f 16/26/5 5/11/5 1/2/5
f 15/25/6 2/5/6 6/12/6
f 17/27/7 10/17/7 12/20/7
f 18/29/8 11/19/8 9/15/8
f 20/32/22 12/20/22 25/38/22
f 15/24/23 10/18/23 26/39/23
f 2/6/1 15/24/1 27/40/1
f 10/17/11 15/25/11 14/23/11
f 9/15/12 11/19/12 16/26/12
f 25/38/24 12/20/24 14/23/24
f 8/14/3 20/32/3 29/42/3
f 7/13/5 18/29/5 19/30/5
f 4/10/14 17/27/14 20/32/14
f 26/39/25 10/18/25 17/28/25
f 9/16/26 26/39/26 30/43/26
f 23/36/3 29/42/3 18/29/3
f 11/19/27 25/38/27 28/41/27
f 21/33/1 27/40/1 13/22/1
f 27/40/28 26/39/28 9/16/28
f 29/42/29 25/38/29 11/19/29
f 24/37/20 21/34/20 1/3/20
f 16/26/3 28/41/3 24/37/3
f 22/35/21 23/36/21 7/13/21
f 19/31/1 30/43/1 22/35/1
